<?xml version="1.0" encoding="UTF-8"?>
<svg xmlns="http://www.w3.org/2000/svg" xmlns:xlink="http://www.w3.org/1999/xlink" width="300px" height="98px" viewBox="0 0 298 98" version="1.1">
<g id="surface1">
<path style=" stroke:none;fill-rule:nonzero;fill:rgb(0%,0%,0%);fill-opacity:1;" d="M 79.613281 36.199219 L 67.128906 19.296875 L 54.210938 19.296875 L 66.304688 35.65625 C 66.53125 35.964844 66.53125 36.464844 66.304688 36.769531 L 47.746094 61.878906 L 65.40625 85.863281 C 66.046875 86.738281 65.6875 87.453125 64.601562 87.453125 L 30.476562 87.453125 C 29.476562 87.453125 29.050781 87.191406 28.53125 86.492188 L 10.863281 62.488281 C 10.636719 62.179688 10.636719 61.679688 10.863281 61.375 L 29.042969 36.777344 C 29.269531 36.472656 29.765625 36.222656 30.148438 36.222656 L 40.125 36.222656 C 40.9375 36.222656 41.210938 36.757812 40.726562 37.414062 L 22.664062 61.878906 L 35.003906 78.730469 L 47.957031 78.730469 L 35.972656 62.519531 C 35.75 62.214844 35.75 61.714844 35.972656 61.410156 L 54.574219 36.199219 L 36.804688 12.175781 C 36.15625 11.300781 36.515625 10.585938 37.601562 10.585938 L 71.871094 10.585938 C 72.410156 10.585938 73.121094 10.941406 73.441406 11.378906 L 91.382812 35.65625 C 91.609375 35.964844 91.609375 36.464844 91.382812 36.769531 L 73.167969 61.394531 C 72.941406 61.699219 72.445312 61.949219 72.066406 61.949219 L 62.085938 61.949219 C 61.273438 61.949219 61.003906 61.414062 61.484375 60.757812 Z M 79.613281 36.199219 "/>
<path style=" stroke:none;fill-rule:nonzero;fill:rgb(0%,0%,0%);fill-opacity:1;" d="M 183.921875 50.6875 C 195.507812 50.6875 204.019531 59.152344 204.019531 69.519531 C 204.019531 79.886719 195.507812 88.347656 183.921875 88.347656 C 172.335938 88.347656 163.828125 79.886719 163.828125 69.519531 C 163.828125 59.152344 172.335938 50.6875 183.921875 50.6875 Z M 183.921875 57.917969 C 176.984375 57.917969 172.476562 63.171875 172.476562 69.519531 C 172.476562 75.863281 176.984375 81.117188 183.921875 81.117188 C 190.863281 81.117188 195.367188 75.863281 195.367188 69.519531 C 195.367188 63.171875 190.863281 57.917969 183.921875 57.917969 Z M 183.921875 57.917969 "/>
<path style=" stroke:none;fill-rule:nonzero;fill:rgb(0%,0%,0%);fill-opacity:1;" d="M 147.722656 50.6875 C 142 50.6875 137.996094 53.210938 134.921875 57.035156 C 132.917969 53.210938 129.128906 50.6875 123.695312 50.6875 C 117.898438 50.6875 114.613281 53.6875 112.175781 56.894531 L 112.175781 52.425781 C 112.175781 51.882812 111.734375 51.4375 111.191406 51.4375 L 104.511719 51.4375 C 103.96875 51.4375 103.527344 51.882812 103.527344 52.425781 L 103.527344 86.472656 C 103.527344 87.019531 103.96875 87.464844 104.511719 87.464844 L 111.191406 87.464844 C 111.734375 87.464844 112.175781 87.019531 112.175781 86.472656 L 112.175781 67.0625 C 112.175781 61.46875 115.46875 58.191406 120.261719 58.191406 C 125.050781 58.191406 127.910156 61.46875 127.910156 67.0625 L 127.910156 86.472656 C 127.910156 87.019531 128.355469 87.464844 128.898438 87.464844 L 135.578125 87.464844 C 136.121094 87.464844 136.566406 87.019531 136.566406 86.472656 L 136.566406 67.0625 C 136.566406 61.261719 139.925781 58.191406 144.648438 58.191406 C 149.507812 58.191406 152.296875 61.328125 152.296875 67.0625 L 152.296875 86.472656 C 152.296875 87.019531 152.738281 87.464844 153.28125 87.464844 L 159.964844 87.464844 C 160.507812 87.464844 160.953125 87.019531 160.953125 86.472656 L 160.953125 64.46875 C 160.953125 55.667969 155.945312 50.6875 147.722656 50.6875 Z M 147.722656 50.6875 "/>
<path style=" stroke:none;fill-rule:nonzero;fill:rgb(0%,0%,0%);fill-opacity:1;" d="M 224.292969 87.460938 C 224.675781 87.460938 225.105469 87.175781 225.257812 86.828125 L 240.113281 52.347656 C 240.328125 51.847656 240.058594 51.4375 239.515625 51.4375 L 231.898438 51.4375 C 231.519531 51.4375 231.097656 51.730469 230.960938 52.085938 L 221.050781 77.914062 L 211.140625 52.085938 C 211.003906 51.730469 210.582031 51.4375 210.203125 51.4375 L 202.585938 51.4375 C 202.042969 51.4375 201.773438 51.847656 201.988281 52.347656 L 216.84375 86.828125 C 216.996094 87.175781 217.425781 87.460938 217.808594 87.460938 Z M 224.292969 87.460938 "/>
<path style=" stroke:none;fill-rule:nonzero;fill:rgb(0%,0%,0%);fill-opacity:1;" d="M 242.964844 87.460938 C 242.421875 87.460938 241.980469 87.019531 241.980469 86.472656 L 241.980469 52.425781 C 241.980469 51.882812 242.421875 51.4375 242.964844 51.4375 L 249.644531 51.4375 C 250.1875 51.4375 250.632812 51.882812 250.632812 52.425781 L 250.632812 86.472656 C 250.632812 87.019531 250.1875 87.460938 249.644531 87.460938 Z M 242.964844 87.460938 "/>
<path style=" stroke:none;fill-rule:nonzero;fill:rgb(0%,0%,0%);fill-opacity:1;" d="M 242.75 44.847656 C 242.207031 44.847656 241.761719 44.402344 241.761719 43.859375 L 241.761719 37.25 C 241.761719 36.707031 242.207031 36.261719 242.75 36.261719 L 249.859375 36.261719 C 250.402344 36.261719 250.847656 36.707031 250.847656 37.25 L 250.847656 43.859375 C 250.847656 44.402344 250.402344 44.847656 249.859375 44.847656 Z M 242.75 44.847656 "/>
<path style=" stroke:none;fill-rule:nonzero;fill:rgb(0%,0%,0%);fill-opacity:1;" d="M 271.457031 50.890625 C 282.613281 50.890625 288.050781 55.960938 288.050781 65.578125 L 288.050781 86.472656 C 288.050781 87.019531 287.605469 87.460938 287.0625 87.460938 L 280.457031 87.460938 C 279.914062 87.460938 279.46875 87.019531 279.46875 86.472656 L 279.46875 83.984375 C 276.890625 87.03125 271.519531 88.335938 267.238281 88.214844 C 258.09375 87.953125 253.796875 83.109375 253.796875 76.957031 C 253.796875 67.132812 262.96875 65.234375 269.214844 65.234375 C 272.648438 65.234375 276.5 65.527344 279.539062 65.875 L 279.539062 65.183594 C 279.539062 60.199219 276.246094 57.953125 270.238281 57.953125 C 265.394531 57.953125 262.351562 59.179688 260.402344 59.832031 C 259.894531 60.027344 259.324219 59.773438 259.128906 59.265625 L 257.421875 54.785156 C 257.230469 54.277344 257.492188 53.703125 258 53.515625 C 260.390625 52.554688 264.527344 50.890625 271.457031 50.890625 Z M 269.667969 82.003906 C 275.390625 82.003906 279.679688 78.9375 279.679688 74.433594 L 279.679688 71.4375 C 277.324219 71.027344 274.390625 70.746094 271.027344 70.746094 C 267.886719 70.746094 262.378906 71.472656 262.378906 76.332031 C 262.378906 78.988281 263.941406 82.003906 269.667969 82.003906 Z M 269.667969 82.003906 "/>
</g>
</svg>
