<?xml version="1.0" encoding="UTF-8"?>
<svg xmlns="http://www.w3.org/2000/svg" xmlns:xlink="http://www.w3.org/1999/xlink" width="310px" height="80px" viewBox="0 0 308 80" version="1.1">
<g id="surface1">
<path style=" stroke:none;fill-rule:nonzero;fill:rgb(0%,0%,0%);fill-opacity:1;" d="M 34.507812 0.546875 C 21.9375 3.046875 12.054688 11.796875 8.203125 23.789062 C 5.632812 31.796875 6.101562 40.976562 9.410156 48.320312 L 10.496094 50.742188 L 6.375 52.96875 C 1.667969 55.46875 0.847656 56.09375 0.847656 57.03125 C 0.847656 58.125 4.507812 63.4375 6.996094 65.9375 C 11.390625 70.351562 17.074219 73.554688 23.300781 75.078125 C 25.945312 75.703125 27.851562 75.898438 31.585938 75.898438 C 37.617188 75.859375 41.121094 75 46.566406 72.304688 C 53.496094 68.867188 58.476562 63.828125 61.898438 56.835938 C 64.699219 51.132812 65.242188 48.632812 65.242188 41.601562 C 65.242188 35.15625 64.738281 32.421875 62.640625 27.773438 C 62.054688 26.40625 61.589844 25.234375 61.628906 25.195312 C 61.703125 25.15625 63.804688 24.023438 66.292969 22.695312 C 69.097656 21.210938 70.925781 20 71.082031 19.53125 C 71.667969 17.695312 66.375 10.664062 61.742188 7.148438 C 58.355469 4.53125 53.726562 2.265625 49.679688 1.171875 C 45.671875 0.078125 38.316406 -0.195312 34.507812 0.546875 Z M 44.503906 19.179688 C 47.96875 19.921875 50.652344 21.445312 53.296875 24.101562 C 54.621094 25.46875 55.710938 26.875 55.710938 27.265625 C 55.710938 27.734375 54.3125 28.710938 51.082031 30.429688 L 46.453125 32.890625 L 47.269531 34.6875 C 47.773438 35.898438 48.125 37.65625 48.242188 39.726562 C 48.941406 52.96875 35.359375 61.5625 23.726562 55.195312 C 21.585938 54.023438 17.578125 49.921875 17.578125 48.90625 C 17.578125 48.476562 19.097656 47.421875 22.25 45.78125 L 26.878906 43.359375 L 26.023438 41.484375 C 25.320312 39.960938 25.167969 38.945312 25.167969 35.546875 C 25.207031 30.195312 26.0625 27.929688 29.332031 24.375 C 33.53125 19.882812 38.980469 18.007812 44.503906 19.179688 Z M 44.503906 19.179688 "/>
<path style=" stroke:none;fill-rule:nonzero;fill:rgb(0%,0%,0%);fill-opacity:1;" d="M 85.671875 27.382812 C 82.675781 28.28125 80.617188 30.742188 80.617188 33.398438 C 80.617188 35.703125 81.667969 37.382812 84.777344 39.921875 C 86.375 41.25 87.929688 42.851562 88.277344 43.476562 C 88.824219 44.53125 88.785156 44.726562 88.085938 45.664062 C 87.074219 47.03125 84.582031 47.265625 82.832031 46.132812 L 81.625 45.351562 L 80.496094 47.34375 C 79.445312 49.179688 79.410156 49.296875 80.109375 49.804688 C 81.316406 50.703125 84.195312 51.367188 87.035156 51.367188 C 93.066406 51.367188 96.765625 47.304688 95.363281 42.226562 C 94.972656 40.742188 94.269531 39.84375 91.238281 36.914062 C 89.253906 34.960938 87.621094 33.164062 87.621094 32.890625 C 87.621094 32.65625 88.046875 32.148438 88.554688 31.835938 C 89.292969 31.328125 89.796875 31.289062 91.316406 31.640625 C 92.324219 31.875 93.21875 31.992188 93.261719 31.953125 C 93.300781 31.875 93.726562 31.09375 94.195312 30.15625 L 95.050781 28.476562 L 93.570312 27.851562 C 91.742188 27.109375 87.503906 26.835938 85.671875 27.382812 Z M 85.671875 27.382812 "/>
<path style=" stroke:none;fill-rule:nonzero;fill:rgb(0%,0%,0%);fill-opacity:1;" d="M 104.464844 27.226562 C 101.707031 27.34375 101.238281 27.460938 101.238281 28.046875 C 101.238281 28.4375 101.78125 29.0625 102.40625 29.453125 C 103.300781 29.960938 104.3125 31.523438 106.410156 35.664062 L 109.210938 41.210938 L 109.605469 50.976562 L 116.605469 50.976562 L 116.996094 41.210938 L 120.421875 34.492188 C 122.289062 30.78125 123.804688 27.65625 123.804688 27.539062 C 123.804688 27.421875 122.519531 27.34375 120.925781 27.34375 L 118.085938 27.34375 L 116.722656 30.351562 C 115.984375 32.03125 115.050781 34.257812 114.660156 35.273438 L 113.960938 37.148438 L 112.132812 32.148438 L 110.34375 27.148438 L 108.980469 27.109375 C 108.28125 27.109375 106.214844 27.148438 104.464844 27.226562 Z M 104.464844 27.226562 "/>
<path style=" stroke:none;fill-rule:nonzero;fill:rgb(0%,0%,0%);fill-opacity:1;" d="M 298.320312 27.890625 C 298.046875 28.320312 296.761719 30.546875 295.4375 32.8125 L 293.066406 36.914062 L 293.066406 27.34375 L 288.203125 27.34375 C 283.648438 27.34375 283.335938 27.382812 283.335938 28.085938 C 283.335938 28.515625 283.84375 29.179688 284.503906 29.53125 L 285.675781 30.234375 L 285.75 40.625 L 285.867188 50.976562 L 292.871094 50.976562 L 293.066406 45.507812 L 293.261719 40.078125 L 296.527344 45.742188 L 299.796875 51.40625 L 303.144531 50.859375 C 304.972656 50.546875 306.609375 50.195312 306.800781 50.039062 C 306.957031 49.882812 305.246094 47.070312 303.027344 43.75 L 298.980469 37.773438 L 299.835938 36.367188 C 300.34375 35.585938 301.625 33.59375 302.753906 31.875 C 303.84375 30.195312 304.738281 28.671875 304.738281 28.515625 C 304.738281 28.359375 303.417969 27.96875 301.78125 27.65625 C 298.902344 27.070312 298.824219 27.070312 298.320312 27.890625 Z M 298.320312 27.890625 "/>
<path style=" stroke:none;fill-rule:nonzero;fill:rgb(0%,0%,0%);fill-opacity:1;" d="M 128.863281 28.007812 C 128.863281 28.476562 129.371094 29.0625 130.226562 29.53125 L 131.589844 30.273438 L 131.589844 51.171875 L 136.605469 51.171875 C 139.332031 51.171875 142.523438 50.976562 143.6875 50.78125 C 149.757812 49.609375 153.300781 45.703125 153.6875 39.648438 C 153.921875 35.78125 153.066406 33.242188 150.691406 30.859375 C 147.851562 28.007812 146.414062 27.65625 136.957031 27.421875 C 129.136719 27.265625 128.863281 27.304688 128.863281 28.007812 Z M 143.609375 32.734375 C 145.75 34.335938 146.179688 35.351562 146.179688 38.984375 C 146.179688 41.875 146.023438 42.617188 145.28125 43.867188 C 144.117188 45.703125 142.636719 46.484375 140.339844 46.484375 L 138.589844 46.484375 L 138.589844 39.335938 C 138.589844 35.390625 138.707031 32.03125 138.902344 31.875 C 139.371094 31.367188 142.597656 31.992188 143.609375 32.734375 Z M 143.609375 32.734375 "/>
<path style=" stroke:none;fill-rule:nonzero;fill:rgb(0%,0%,0%);fill-opacity:1;" d="M 158.824219 29.492188 L 158.824219 31.640625 L 165.441406 31.640625 L 165.441406 51.171875 L 172.445312 51.171875 L 172.519531 41.484375 L 172.636719 31.835938 L 176.0625 31.71875 L 179.449219 31.601562 L 179.449219 27.34375 L 158.824219 27.34375 Z M 158.824219 29.492188 "/>
<path style=" stroke:none;fill-rule:nonzero;fill:rgb(0%,0%,0%);fill-opacity:1;" d="M 185.285156 28.085938 C 185.285156 28.515625 185.75 29.140625 186.453125 29.53125 L 187.617188 30.234375 L 187.699219 40.625 L 187.8125 50.976562 L 194.816406 50.976562 L 194.933594 46.5625 C 195.050781 42.34375 195.050781 42.1875 195.90625 42.1875 C 196.644531 42.1875 197.035156 42.851562 198.59375 46.796875 C 200.1875 50.859375 200.496094 51.367188 201.316406 51.328125 C 201.785156 51.289062 203.535156 51.132812 205.128906 51.015625 L 208.085938 50.742188 L 205.554688 45.742188 L 203.027344 40.703125 L 204.46875 39.375 C 206.179688 37.734375 206.6875 36.484375 206.6875 33.828125 C 206.6875 31.289062 205.636719 29.53125 203.378906 28.359375 C 201.976562 27.617188 201.042969 27.539062 193.570312 27.421875 C 185.480469 27.265625 185.285156 27.304688 185.285156 28.085938 Z M 199.019531 32.851562 C 199.914062 33.945312 199.875 35.195312 198.863281 36.484375 C 198.242188 37.265625 197.738281 37.5 196.53125 37.5 L 195.011719 37.5 L 195.011719 31.523438 L 196.6875 31.796875 C 197.617188 31.953125 198.59375 32.382812 199.019531 32.851562 Z M 199.019531 32.851562 "/>
<path style=" stroke:none;fill-rule:nonzero;fill:rgb(0%,0%,0%);fill-opacity:1;" d="M 222.25 28.320312 C 222.054688 28.867188 219.953125 34.0625 217.578125 39.882812 C 215.246094 45.703125 213.300781 50.625 213.300781 50.820312 C 213.300781 51.015625 214.503906 51.171875 215.984375 51.171875 L 218.671875 51.171875 L 219.796875 48.320312 L 220.925781 45.507812 L 228.203125 45.507812 L 229.171875 48.320312 L 230.109375 51.171875 L 233.765625 51.171875 C 235.789062 51.171875 237.421875 51.054688 237.421875 50.859375 C 237.421875 50.703125 235.476562 45.351562 233.066406 38.945312 L 228.707031 27.34375 L 225.671875 27.34375 C 222.753906 27.34375 222.597656 27.382812 222.25 28.320312 Z M 225.90625 37.539062 C 226.453125 39.609375 226.917969 41.40625 226.917969 41.5625 C 226.917969 41.679688 225.867188 41.796875 224.582031 41.796875 C 223.300781 41.796875 222.25 41.679688 222.25 41.5625 C 222.25 41.132812 224.699219 33.554688 224.777344 33.671875 C 224.855469 33.75 225.363281 35.46875 225.90625 37.539062 Z M 225.90625 37.539062 "/>
<path style=" stroke:none;fill-rule:nonzero;fill:rgb(0%,0%,0%);fill-opacity:1;" d="M 242.480469 28.085938 C 242.480469 28.515625 243.0625 29.179688 243.84375 29.648438 L 245.207031 30.429688 L 245.207031 51.171875 L 252.207031 51.171875 L 252.207031 42.1875 L 259.214844 42.1875 L 259.214844 37.890625 L 252.207031 37.890625 L 252.207031 31.640625 L 259.214844 31.640625 L 259.214844 27.34375 L 250.847656 27.34375 C 242.871094 27.34375 242.480469 27.382812 242.480469 28.085938 Z M 242.480469 28.085938 "/>
<path style=" stroke:none;fill-rule:nonzero;fill:rgb(0%,0%,0%);fill-opacity:1;" d="M 265.828125 28.046875 C 265.828125 28.4375 266.410156 29.0625 267.191406 29.453125 L 268.550781 30.195312 L 268.550781 51.171875 L 275.554688 51.171875 L 275.554688 27.34375 L 270.691406 27.34375 C 266.296875 27.34375 265.828125 27.421875 265.828125 28.046875 Z M 265.828125 28.046875 "/>
<path style=" stroke:none;fill-rule:nonzero;fill:rgb(0%,0%,0%);fill-opacity:1;" d="M 119.527344 67.382812 L 119.527344 75 L 120.5 75 C 121.394531 75 121.433594 74.882812 121.546875 72.265625 L 121.664062 69.53125 L 123.726562 72.265625 C 125.828125 75 126.253906 75.273438 127.269531 74.648438 C 127.890625 74.21875 128.007812 74.414062 125.207031 71.015625 L 123.691406 69.140625 L 125.324219 67.382812 C 127.035156 65.507812 127.230469 65.039062 126.335938 64.726562 C 125.984375 64.570312 124.972656 65.3125 123.648438 66.71875 L 121.46875 68.945312 L 121.46875 59.765625 L 119.527344 59.765625 Z M 119.527344 67.382812 "/>
<path style=" stroke:none;fill-rule:nonzero;fill:rgb(0%,0%,0%);fill-opacity:1;" d="M 172.480469 60.507812 C 172.015625 60.976562 171.550781 62.03125 171.429688 62.890625 C 171.238281 64.0625 171.003906 64.453125 170.460938 64.453125 C 170.03125 64.453125 169.71875 64.726562 169.71875 65.039062 C 169.71875 65.351562 170.070312 65.625 170.5 65.625 C 171.238281 65.625 171.273438 65.898438 171.273438 70.3125 L 171.273438 75 L 173.21875 75 L 173.21875 65.625 L 174.390625 65.625 C 175.164062 65.625 175.558594 65.429688 175.558594 65.039062 C 175.558594 64.648438 175.164062 64.453125 174.390625 64.453125 C 173.339844 64.453125 173.21875 64.335938 173.21875 63.164062 C 173.21875 61.640625 173.808594 60.9375 175.089844 60.9375 C 176.453125 60.9375 175.945312 60 174.464844 59.84375 C 173.652344 59.765625 173.027344 59.960938 172.480469 60.507812 Z M 172.480469 60.507812 "/>
<path style=" stroke:none;fill-rule:nonzero;fill:rgb(0%,0%,0%);fill-opacity:1;" d="M 208.632812 62.539062 C 208.632812 65.039062 208.550781 65.273438 207.96875 65.039062 C 204.078125 63.320312 200.847656 65.585938 200.847656 69.960938 C 200.847656 74.101562 203.84375 76.328125 207.152344 74.648438 C 208.320312 74.101562 208.632812 74.023438 208.632812 74.453125 C 208.632812 74.765625 209.019531 75 209.601562 75 L 210.578125 75 L 210.578125 59.765625 L 209.601562 59.765625 C 208.667969 59.765625 208.632812 59.84375 208.632812 62.539062 Z M 207.96875 66.875 C 208.707031 67.773438 208.863281 70.429688 208.238281 72.03125 C 207.773438 73.28125 206.292969 74.023438 204.972656 73.671875 C 202.402344 73.046875 201.976562 67.03125 204.429688 66.015625 C 205.636719 65.507812 207.113281 65.898438 207.96875 66.875 Z M 207.96875 66.875 "/>
<path style=" stroke:none;fill-rule:nonzero;fill:rgb(0%,0%,0%);fill-opacity:1;" d="M 108.785156 60.703125 C 108.398438 61.71875 108.941406 62.578125 109.875 62.421875 C 110.539062 62.34375 110.769531 62.03125 110.769531 61.328125 C 110.769531 60.625 110.539062 60.3125 109.875 60.234375 C 109.367188 60.15625 108.90625 60.351562 108.785156 60.703125 Z M 108.785156 60.703125 "/>
<path style=" stroke:none;fill-rule:nonzero;fill:rgb(0%,0%,0%);fill-opacity:1;" d="M 213.453125 60.742188 C 213.144531 61.5625 213.53125 62.5 214.195312 62.5 C 214.503906 62.5 214.972656 62.226562 215.246094 61.914062 C 215.632812 61.445312 215.632812 61.210938 215.246094 60.742188 C 214.972656 60.429688 214.503906 60.15625 214.195312 60.15625 C 213.921875 60.15625 213.574219 60.429688 213.453125 60.742188 Z M 213.453125 60.742188 "/>
<path style=" stroke:none;fill-rule:nonzero;fill:rgb(0%,0%,0%);fill-opacity:1;" d="M 137.734375 64.6875 C 137.269531 65.15625 136.957031 65.234375 136.335938 64.882812 C 135.089844 64.21875 132.679688 64.375 131.277344 65.234375 C 129.097656 66.601562 128.320312 69.453125 129.445312 72.148438 C 129.992188 73.4375 129.992188 73.632812 129.371094 74.296875 C 128.941406 74.765625 128.863281 75.15625 129.097656 75.390625 C 129.371094 75.664062 129.71875 75.546875 130.144531 75.078125 C 130.769531 74.375 130.964844 74.375 132.484375 74.882812 C 135.984375 76.015625 138.980469 73.710938 138.980469 69.84375 C 138.980469 68.789062 138.785156 67.578125 138.589844 67.148438 C 138.28125 66.601562 138.320312 66.171875 138.785156 65.507812 C 139.640625 64.140625 138.902344 63.554688 137.734375 64.6875 Z M 135.285156 66.171875 C 135.984375 66.679688 135.867188 66.835938 133.730469 69.296875 C 131.546875 71.757812 131.390625 71.875 131.082031 71.015625 C 130.613281 69.6875 131.121094 67.617188 132.171875 66.5625 C 133.222656 65.507812 134.191406 65.390625 135.285156 66.171875 Z M 137.035156 69.53125 C 137.035156 71.328125 136.21875 73.242188 135.285156 73.59375 C 134.15625 74.023438 132.753906 73.828125 132.523438 73.242188 C 132.289062 72.695312 136.0625 68.007812 136.761719 67.96875 C 136.917969 67.96875 137.035156 68.671875 137.035156 69.53125 Z M 137.035156 69.53125 "/>
<path style=" stroke:none;fill-rule:nonzero;fill:rgb(0%,0%,0%);fill-opacity:1;" d="M 98.085938 64.765625 C 97.578125 65 97.851562 65.820312 99.605469 70 C 101.082031 73.515625 101.898438 75 102.363281 75 C 103.183594 75 107.542969 65.195312 106.917969 64.765625 C 105.945312 64.101562 105.558594 64.648438 104.15625 68.359375 C 103.339844 70.507812 102.5625 72.1875 102.480469 72.070312 C 102.363281 71.953125 101.664062 70.273438 100.886719 68.28125 C 99.449219 64.648438 99.175781 64.296875 98.085938 64.765625 Z M 98.085938 64.765625 "/>
<path style=" stroke:none;fill-rule:nonzero;fill:rgb(0%,0%,0%);fill-opacity:1;" d="M 108.90625 64.726562 C 108.75 64.84375 108.628906 67.226562 108.628906 70 L 108.628906 75 L 110.574219 75 L 110.574219 69.726562 C 110.574219 64.882812 110.539062 64.453125 109.875 64.453125 C 109.488281 64.453125 109.019531 64.570312 108.90625 64.726562 Z M 108.90625 64.726562 "/>
<path style=" stroke:none;fill-rule:nonzero;fill:rgb(0%,0%,0%);fill-opacity:1;" d="M 141.316406 69.726562 L 141.316406 75 L 142.285156 75 C 143.261719 75 143.261719 75 143.261719 71.171875 C 143.261719 67.890625 143.378906 67.1875 144 66.640625 C 144.386719 66.289062 144.972656 66.09375 145.363281 66.25 C 146.296875 66.601562 147.308594 65.664062 146.726562 65 C 146.140625 64.296875 144.816406 64.296875 143.730469 65.078125 C 142.949219 65.625 142.871094 65.625 142.871094 65.078125 C 142.871094 64.726562 142.523438 64.453125 142.09375 64.453125 C 141.355469 64.453125 141.316406 64.726562 141.316406 69.726562 Z M 141.316406 69.726562 "/>
<path style=" stroke:none;fill-rule:nonzero;fill:rgb(0%,0%,0%);fill-opacity:1;" d="M 150.265625 64.726562 C 149.097656 65.15625 147.929688 66.601562 147.539062 68.007812 C 146.296875 72.65625 150.378906 76.601562 154.542969 74.726562 C 155.671875 74.21875 155.984375 73.867188 155.75 73.476562 C 155.519531 73.085938 155.246094 73.046875 154.625 73.398438 C 153.53125 73.984375 151.742188 73.945312 150.925781 73.320312 C 150.148438 72.734375 149.058594 70.664062 149.328125 70.234375 C 149.445312 70.078125 151.003906 69.921875 152.832031 69.921875 L 156.101562 69.921875 L 156.101562 68.75 C 156.101562 67.265625 155.167969 65.390625 154.195312 64.84375 C 153.375 64.414062 151.277344 64.375 150.265625 64.726562 Z M 153.726562 66.640625 C 155.125 68.398438 154.820312 68.75 152.015625 68.75 C 149.136719 68.75 148.785156 68.242188 150.460938 66.601562 C 151.667969 65.351562 152.71875 65.351562 153.726562 66.640625 Z M 153.726562 66.640625 "/>
<path style=" stroke:none;fill-rule:nonzero;fill:rgb(0%,0%,0%);fill-opacity:1;" d="M 158.320312 64.726562 C 158.164062 64.84375 158.046875 67.226562 158.046875 70 L 158.046875 75 L 159.019531 75 C 159.992188 75 159.992188 74.960938 159.992188 71.679688 C 159.992188 68.4375 160.5 66.445312 161.316406 66.367188 C 161.550781 66.328125 162.132812 66.367188 162.636719 66.40625 C 163.648438 66.484375 164.269531 65.3125 163.457031 64.804688 C 162.601562 64.257812 161.46875 64.375 160.691406 65.117188 C 160.03125 65.703125 159.992188 65.703125 159.992188 65.117188 C 159.992188 64.453125 158.824219 64.179688 158.320312 64.726562 Z M 158.320312 64.726562 "/>
<path style=" stroke:none;fill-rule:nonzero;fill:rgb(0%,0%,0%);fill-opacity:1;" d="M 178.628906 65.039062 C 176.609375 66.132812 175.632812 68.828125 176.296875 71.367188 C 177.347656 75.234375 182.207031 76.484375 184.894531 73.632812 C 186.101562 72.34375 186.453125 68.671875 185.515625 66.875 C 184.390625 64.648438 180.964844 63.75 178.628906 65.039062 Z M 183.300781 66.601562 C 183.609375 66.914062 183.960938 68.203125 184.039062 69.492188 C 184.195312 71.601562 184.117188 71.914062 183.222656 72.8125 C 180.886719 75.15625 178.28125 73.476562 178.28125 69.648438 C 178.28125 67.890625 178.4375 67.382812 179.292969 66.523438 C 180.070312 65.742188 180.5 65.585938 181.507812 65.78125 C 182.171875 65.9375 182.988281 66.289062 183.300781 66.601562 Z M 183.300781 66.601562 "/>
<path style=" stroke:none;fill-rule:nonzero;fill:rgb(0%,0%,0%);fill-opacity:1;" d="M 188.398438 69.726562 L 188.398438 75 L 189.371094 75 C 190.34375 75 190.34375 75 190.34375 71.171875 C 190.34375 67.890625 190.457031 67.1875 191.082031 66.640625 C 191.46875 66.289062 192.054688 66.09375 192.445312 66.25 C 193.378906 66.601562 194.390625 65.664062 193.804688 65 C 193.222656 64.296875 191.898438 64.296875 190.808594 65.078125 C 190.03125 65.625 189.953125 65.625 189.953125 65.078125 C 189.953125 64.726562 189.601562 64.453125 189.175781 64.453125 C 188.4375 64.453125 188.398438 64.726562 188.398438 69.726562 Z M 188.398438 69.726562 "/>
<path style=" stroke:none;fill-rule:nonzero;fill:rgb(0%,0%,0%);fill-opacity:1;" d="M 213.300781 69.726562 L 213.300781 75 L 215.246094 75 L 215.246094 64.453125 L 213.300781 64.453125 Z M 213.300781 69.726562 "/>
<path style=" stroke:none;fill-rule:nonzero;fill:rgb(0%,0%,0%);fill-opacity:1;" d="M 219.601562 65.234375 C 216.570312 67.109375 216.414062 72.539062 219.371094 74.492188 C 220.730469 75.351562 222.949219 75.3125 224.386719 74.375 L 225.476562 73.671875 L 225.246094 75.351562 C 224.855469 78.28125 223.027344 79.375 219.875 78.515625 C 218.589844 78.164062 218.164062 78.164062 217.929688 78.59375 C 217.382812 79.453125 219.757812 80.195312 222.40625 80 C 224.386719 79.84375 224.855469 79.648438 225.789062 78.59375 C 227.113281 77.109375 227.382812 75.429688 227.226562 69.335938 C 227.113281 64.804688 227.074219 64.648438 226.257812 64.53125 C 225.632812 64.453125 225.363281 64.609375 225.363281 65.039062 C 225.363281 65.664062 225.28125 65.664062 224.386719 65.078125 C 223.105469 64.21875 221.160156 64.296875 219.601562 65.234375 Z M 224.078125 66.5625 C 225.011719 67.382812 225.167969 67.773438 225.167969 69.648438 C 225.167969 71.40625 224.972656 71.992188 224.195312 72.851562 C 222.09375 75.117188 219.289062 73.164062 219.371094 69.453125 C 219.371094 67.773438 219.566406 67.304688 220.460938 66.523438 C 221.78125 65.390625 222.71875 65.390625 224.078125 66.5625 Z M 224.078125 66.5625 "/>
<path style=" stroke:none;fill-rule:nonzero;fill:rgb(0%,0%,0%);fill-opacity:1;" d="M 81.003906 70.117188 C 81.003906 70.625 81.859375 70.703125 86.257812 70.703125 C 90.65625 70.703125 91.511719 70.625 91.511719 70.117188 C 91.511719 69.609375 90.65625 69.53125 86.257812 69.53125 C 81.859375 69.53125 81.003906 69.609375 81.003906 70.117188 Z M 81.003906 70.117188 "/>
</g>
</svg>
