<?xml version="1.0" encoding="UTF-8"?>
<svg xmlns="http://www.w3.org/2000/svg" xmlns:xlink="http://www.w3.org/1999/xlink" width="300px" height="103px" viewBox="0 0 300 103" version="1.1">
<g id="surface1">
<path style=" stroke:none;fill-rule:nonzero;fill:rgb(100%,100%,100%);fill-opacity:1;" d="M 11.894531 9.699219 L 288.105469 9.699219 L 288.105469 93.3125 L 11.894531 93.3125 Z M 11.894531 9.699219 "/>
<path style=" stroke:none;fill-rule:nonzero;fill:rgb(42.352941%,78.039216%,16.862745%);fill-opacity:1;" d="M 178.019531 53.070312 L 157.582031 53.070312 L 154.824219 66.738281 L 175.871094 66.738281 C 179.570312 66.738281 181.269531 64.960938 181.964844 61.488281 L 182.53125 58.675781 C 183.511719 53.835938 181.632812 53.070312 178.019531 53.070312 Z M 178.019531 53.070312 "/>
<path style=" stroke:none;fill-rule:nonzero;fill:rgb(42.352941%,78.039216%,16.862745%);fill-opacity:1;" d="M 286.664062 0.195312 L 13.339844 0.195312 C 5.972656 0.195312 0 8.15625 0 17.976562 L 0 85.023438 C 0 94.84375 5.972656 102.804688 13.339844 102.804688 L 286.664062 102.804688 C 294.03125 102.796875 299.996094 94.839844 300 85.023438 L 300 17.976562 C 300.003906 8.160156 294.035156 0.199219 286.671875 0.195312 Z M 82.582031 71.097656 L 73.578125 71.097656 L 76.320312 57.429688 L 69.265625 41.351562 L 41.316406 41.351562 L 39.851562 48.65625 L 60.527344 48.65625 L 58.714844 57.757812 L 37.996094 57.757812 L 35.335938 71.097656 L 26.289062 71.097656 L 34.195312 31.894531 L 76.039062 31.894531 L 82.730469 47.925781 L 95.890625 31.894531 L 106.746094 31.894531 L 85.320312 57.460938 Z M 140.585938 71.097656 L 126.648438 71.097656 L 115.429688 42.621094 L 115.347656 42.621094 L 109.628906 71.097656 L 100.582031 71.097656 L 108.460938 31.894531 L 122.425781 31.894531 L 133.648438 60.378906 L 133.730469 60.378906 L 139.453125 31.894531 L 148.5 31.894531 Z M 189.007812 40.609375 L 188.332031 43.972656 C 187.765625 46.785156 186.015625 49.65625 182.335938 50.136719 L 182.296875 50.363281 C 185.382812 50.578125 187.824219 52.148438 186.632812 58.105469 L 185.691406 62.769531 C 184.59375 68.226562 180.359375 71.097656 175.488281 71.097656 L 149.976562 71.097656 L 157.859375 31.894531 L 182.964844 31.894531 C 189.054688 31.886719 189.914062 36.117188 189.007812 40.609375 Z M 228.40625 61.25 C 226.808594 69.207031 223.335938 71.539062 215.863281 71.53125 L 202.292969 71.53125 C 194.816406 71.53125 192.277344 69.214844 193.878906 61.25 L 199.777344 31.894531 L 203.765625 31.894531 L 197.875 61.191406 C 197.105469 64.980469 197.636719 67.207031 203.042969 67.207031 L 216.851562 67.207031 C 222.28125 67.207031 223.679688 64.980469 224.445312 61.191406 L 230.332031 31.894531 L 234.3125 31.894531 Z M 273.265625 41.808594 L 272.992188 43.160156 L 269.261719 43.160156 C 270.429688 36.929688 270.171875 35.792969 259.726562 35.792969 L 255.503906 35.792969 C 247.828125 35.792969 245 36.332031 243.703125 42.78125 C 242.765625 47.4375 243.546875 49.003906 249.761719 49.003906 L 261.535156 49.003906 C 269.304688 49.003906 271.957031 51.988281 270.582031 58.652344 L 270.070312 61.199219 C 268.132812 70.847656 262.058594 71.539062 256.199219 71.546875 L 245.15625 71.546875 C 239.347656 71.546875 234.492188 70.1875 236.21875 61.632812 L 236.789062 58.757812 L 240.53125 58.757812 L 239.976562 61.523438 C 239.207031 65.371094 240.378906 67.214844 245.335938 67.214844 L 257.679688 67.214844 C 263.453125 67.214844 265.484375 65.605469 266.613281 59.976562 C 267.609375 55.050781 266.394531 53.804688 261.4375 53.804688 L 253.898438 53.804688 C 241.753906 53.804688 237.972656 52.832031 240.058594 42.425781 C 241.867188 33.496094 246.242188 31.492188 254.449219 31.492188 L 263.019531 31.492188 C 272.867188 31.46875 274.671875 34.8125 273.265625 41.808594 Z M 273.265625 41.808594 "/>
<path style=" stroke:none;fill-rule:nonzero;fill:rgb(42.352941%,78.039216%,16.862745%);fill-opacity:1;" d="M 181.722656 36.226562 L 160.964844 36.226562 L 158.449219 48.730469 L 179.007812 48.730469 C 181.160156 48.730469 183.578125 47.8125 184.363281 43.90625 L 185.074219 40.335938 C 185.800781 36.765625 182.945312 36.226562 181.722656 36.226562 Z M 181.722656 36.226562 "/>
</g>
</svg>
