<svg version="1.1" id="Layer_1" xmlns="http://www.w3.org/2000/svg" x="0" y="0" viewBox="0 0 122.8 42.2" xml:space="preserve"><style>.st0{fill:#767676}</style><path class="st0" d="M27.6 42v-8.2c0-1.8-.8-2.5-2.3-2.5-.4 0-.9.2-1.3.4-.4.3-.7.6-.9 1v9.4H20v-8.8c0-.6-.2-1.1-.6-1.5s-1-.5-1.7-.5c-.4 0-.8.2-1.2.4-.4.2-.8.6-1 1v9.4h-3.1v-13h2.7v1.1c.9-1 1.9-1.4 3.2-1.4 1.8 0 3.1.4 3.9 1.4a5 5 0 0 1 1.6-1.1c.7-.3 1.4-.4 2-.4 1.5 0 2.6.4 3.4 1.2.8.8 1.2 2 1.2 3.4v8.6l-2.8.1z"/><path d="M16.4 14.8c.2 1.8.3 3.4-.4 4.6-.4-.4-1-.7-1.4-1.1-.6-.5-1.1-1.1-1.7-1.5 1-.4 2.3-1.1 3.5-2m-1.9-4.7c1.2.7 1.6 2.1 1.8 3.9-.1.1-.3.2-.4.3-1.2 1-2.5 1.8-3.6 1.9-1-1.2-1.1-2.5.4-4.4.4-.5 1.1-1.1 1.8-1.7m-7 .9c1.7-.7 3.4-1.2 4.7-1.3.7-.1 1.3 0 1.8.2-.6.5-1.1 1.1-1.6 1.6-1.6 1.8-1.6 3.3-.8 4.7-.8-.1-1.5-.6-2.3-1.7-.6-.9-1.3-2.1-1.8-3.5m9.5 2.4c-.2-1.7-.4-3.2-1.1-4.3.7-.4 1.5-.9 2.2-1.2 1.9 2.5.7 4-1.1 5.5m-.6 6.3c.9-1.2.9-3.2.7-5.4 2.8-2.1 5.1-3.9 3-7.2 1.5-.4 2.8-.4 3.7.3 2.3 2-.3 8.8-2.6 11.6-1.7 1.9-3.2 1.7-4.8.7M12 7.7c-1.5.1-3.3.6-5.2 1.3-.7-2.6-.7-5.2.6-6.2 2.3-1.7 7.8 1.8 10.2 4.6-.7.4-1.5.9-2.1 1.3-.7-.8-1.7-1.1-3.5-1m-5.1 3.6c.6 1.4 1.2 2.6 1.9 3.5 1.1 1.4 2.1 2 3.2 2 .6.9 1.6 1.7 2.5 2.5.3.3.5.4.8.7-.5.4-1.2.7-2.3.8-3.6.3-10.7-1.7-10.9-4.6 0-2 2.2-3.7 4.8-4.9m15.8 9c2.8-3.3 6-11.6 3.2-14.1-1.3-1.1-3.8-.8-6.2.3C17 3 9.7-1.6 6.8.5 5 1.9 5.2 5.8 6.4 9.3 3 10.8-.2 13.2 0 15.4c.3 3.8 8.8 6.1 13.2 5.8 1.2-.1 2.1-.4 2.7-.9 2.2 1.8 4.3 2.8 6.8 0" fill="#9b231c"/><path class="st0" d="M33.4 28.9h3.1V42h-3.1zm14.2 2.3c-.7-.1-1.3 0-2 0-1.2 0-2.2.4-2.8 1.1-.6.7-1 1.8-1 3.2 0 2.7 1.3 4 3.9 4 .3 0 .6-.1 1.1-.3.5-.2.7-.4.8-.5v-7.5zm0 10.8v-.8c-.3.3-.7.5-1.3.7s-1.2.3-1.8.3c-1.8 0-3.2-.6-4.3-1.8-1.1-1.1-1.6-2.7-1.6-4.8s.6-3.8 1.8-5c1.2-1.3 2.4-1.8 4.8-1.8 1.1 0 1.6.4 2.4.7v-6.1h3.1v18.5l-3.1.1z"/><path class="st0" d="M55 31.2h-9.3v-2.3H55v-4.6h3.1v4.6h3.6v2.3h-3.6V37c0 1 .2 1.6.4 2 .3.4.8.6 1.6.6.7 0 1.4-.2 2-.6v2.8c-.7.3-1.8.4-3.1.4s-2.3-.4-3-1.1-1.1-1.8-1.1-3.2l.1-6.7zm34.8 8.2c-.4.2-.8.3-1.1.3-2.6 0-3.9-1.3-3.9-4 0-1.4.4-2.5 1-3.2s1.6-1.1 2.8-1.1h2v7.5c-.1.1-.4.3-.8.5m3.8-10.2v-.3s-5.2-.1-5.4-.1c-2.5-.1-3.6.4-4.8 1.8-1.2 1.3-1.8 3-1.8 5s.5 3.7 1.6 4.8 2.5 1.8 4.3 1.8c.6 0 1.2-.1 1.8-.3.6-.2 1.1-.4 1.3-.7v.8h3.1l-.1-12.8zm-28 2h-1.9v-2.3h1.9v-4.6h3.1v4.6h3.6v2.3h-3.6V37c0 1 .2 1.6.4 2 .3.4.8.6 1.6.6.7 0 1.4-.2 2-.6v2.8c-.7.3-1.8.4-3.1.4s-2.3-.4-3-1.1-1.1-1.8-1.1-3.2l.1-6.7zm15.4 0c-.9 0-1.9.4-2.5 1-.5.6-.9 1.4-.9 2.3v7.4h-3.1v-13h3.1v1.2c.9-1 2.3-1.6 3.3-1.3l.1 2.4zm21.6-7.6v2.5c-.6 0-1.1.3-1.5.7s-.6 1.1-.6 1.8v.4h3.1v2.5h-3v10.6h-3.1V31.5h-1.9V29h1.9c.1-1.6.5-2.9 1.4-3.9s2-1.5 3.4-1.5h.3z"/><path class="st0" d="M104.8 42V31.4h-1.7V29h4.8v13zm14.3 0l-3.9-5.9-1.4 1.5V42h-3V23.5h3v10.4l4.3-4.9h3.7l-4.4 4.9 5.4 8.1z"/></svg>