<?xml version="1.0" encoding="utf-8"?>
<!-- Generator: Adobe Illustrator 19.2.1, SVG Export Plug-In . SVG Version: 6.00 Build 0)  -->
<svg version="1.1" id="Layer_1" xmlns="http://www.w3.org/2000/svg" xmlns:xlink="http://www.w3.org/1999/xlink" x="0px" y="0px"
	 viewBox="0 0 379.1 373.7" style="enable-background:new 0 0 379.1 373.7;" xml:space="preserve">
<style type="text/css">
	.st0{fill:#FFFFFF;}
</style>
<g>
	<circle cx="189.9" cy="186.7" r="184.3"/>
	<path class="st0" d="M306.1,165.6h-25.5l-0.2,0.6c0,0-21.5,40.3-34.7,64.8c-4.5,8.4-9,12.8-18.4,12.8h-28.7l41.9-77.9h-25
		c0,0-23.6,44.1-34.9,65.1c-4.5,8.4-9,12.8-18.4,12.8h-28.7l-15.2-65.8c0,0-20.9,39-28.4,52.9c-4.5,8.4-9,12.8-18.4,12.8H42.8
		c0,0,47-87.5,54.5-101.5c4.5-8.4,9-12.8,18.4-12.8h28.8l15.2,65.7l28.5-52.9c4.5-8.4,9-12.8,18.4-12.8h130.7l-12.6,23.3
		C320,161.2,315.5,165.6,306.1,165.6z"/>
</g>
</svg>
